# WaveFront *.obj file (generated by Autodesk ATF)

mtllib 224d962e-f0b9-4e95-b3be-3d324510d750.mtl

g Body1

v -20.000000 15.000000 10.000000
v -20.000000 -15.000000 10.000000
v -20.000000 -15.000000 5.000000
v -20.000000 15.000000 5.000000
v -15.000000 -20.000000 10.000000
v -15.000000 -20.000000 5.000000
v 20.000000 -5.000000 10.000000
v 20.000000 -5.000000 5.000000
v 20.000000 5.000000 10.000000
v 20.000000 5.000000 5.000000
v -15.000000 20.000000 10.000000
v -15.000000 20.000000 5.000000
v 25.000000 25.000000 10.000000
v -25.000000 25.000000 10.000000
v -25.000000 -25.000000 10.000000
v 25.000000 -25.000000 10.000000
v -25.000000 25.000000 0.000000
v 25.000000 25.000000 -0.000000
v 25.000000 -25.000000 -0.000000
v -25.000000 -25.000000 0.000000
vt -3.000000 -0.000000 0.000000
vt -0.000000 -0.000000 0.000000
vt -3.000000 0.500000 0.000000
vt -0.000000 0.500000 0.000000
vt -0.707107 0.000000 0.000000
vt 0.000000 0.000000 0.000000
vt -0.707107 0.500000 0.000000
vt 0.000000 0.500000 0.000000
vt -3.807887 -0.000000 0.000000
vt -0.000000 -0.000000 0.000000
vt -3.807887 0.500000 0.000000
vt 0.000000 0.500000 0.000000
vt -1.000000 -0.000000 0.000000
vt 0.000000 0.000000 0.000000
vt -1.000000 0.500000 0.000000
vt -0.000000 0.500000 0.000000
vt -3.807887 0.000000 0.000000
vt -0.000000 0.000000 0.000000
vt -3.807887 0.500000 0.000000
vt -0.000000 0.500000 0.000000
vt -0.707107 -0.000000 0.000000
vt 0.000000 -0.000000 0.000000
vt -0.707107 0.500000 0.000000
vt -0.000000 0.500000 0.000000
vt -1.500000 2.000000 0.000000
vt -2.000000 1.500000 0.000000
vt 2.000000 0.500000 0.000000
vt -2.000000 -1.500000 0.000000
vt 2.000000 -0.500000 0.000000
vt -1.500000 -2.000000 0.000000
vt -2.000000 1.500000 0.000000
vt -1.500000 2.000000 0.000000
vt -2.500000 2.500000 0.000000
vt 1.500000 2.000000 0.000000
vt 2.500000 2.500000 0.000000
vt 2.000000 1.500000 0.000000
vt 2.500000 -2.500000 0.000000
vt 0.500000 -2.000000 0.000000
vt -0.500000 -2.000000 0.000000
vt -2.500000 -2.500000 0.000000
vt -2.500000 -2.500000 0.000000
vt 2.500000 -2.500000 0.000000
vt -2.500000 2.500000 0.000000
vt 2.500000 2.500000 0.000000
vt -0.500000 -2.500000 0.000000
vt 0.500000 -2.500000 0.000000
vt -0.500000 2.500000 0.000000
vt 0.500000 2.500000 0.000000
vt 0.500000 2.500000 0.000000
vt -0.500000 2.500000 0.000000
vt 0.500000 -2.500000 0.000000
vt -0.500000 -2.500000 0.000000
vt 0.500000 2.500000 0.000000
vt -0.500000 2.500000 0.000000
vt 0.500000 -2.500000 0.000000
vt -0.500000 -2.500000 0.000000
vt -0.500000 -2.500000 0.000000
vt 0.500000 -2.500000 0.000000
vt -0.500000 2.500000 0.000000
vt 0.500000 2.500000 0.000000
vn 0.100000 0.000000 -0.000000
vn 0.100000 0.000000 -0.000000
vn 0.100000 0.000000 -0.000000
vn 0.100000 0.000000 -0.000000
vn 0.070711 0.070711 -0.000000
vn 0.070711 0.070711 -0.000000
vn 0.070711 0.070711 -0.000000
vn 0.070711 0.070711 -0.000000
vn -0.039392 0.091915 0.000000
vn -0.039392 0.091915 0.000000
vn -0.039392 0.091915 0.000000
vn -0.039392 0.091915 0.000000
vn -0.100000 0.000000 0.000000
vn -0.100000 0.000000 0.000000
vn -0.100000 0.000000 0.000000
vn -0.100000 0.000000 0.000000
vn -0.039392 -0.091915 0.000000
vn -0.039392 -0.091915 0.000000
vn -0.039392 -0.091915 0.000000
vn -0.039392 -0.091915 0.000000
vn 0.070711 -0.070711 -0.000000
vn 0.070711 -0.070711 -0.000000
vn 0.070711 -0.070711 -0.000000
vn 0.070711 -0.070711 -0.000000
vn 0.000000 -0.000000 0.100000
vn 0.000000 -0.000000 0.100000
vn 0.000000 -0.000000 0.100000
vn 0.000000 -0.000000 0.100000
vn 0.000000 -0.000000 0.100000
vn 0.000000 -0.000000 0.100000
vn 0.000000 0.000000 0.100000
vn 0.000000 0.000000 0.100000
vn 0.000000 0.000000 0.100000
vn 0.000000 0.000000 0.100000
vn 0.000000 0.000000 0.100000
vn 0.000000 0.000000 0.100000
vn 0.000000 0.000000 0.100000
vn 0.000000 0.000000 0.100000
vn 0.000000 0.000000 0.100000
vn 0.000000 0.000000 0.100000
vn -0.000000 0.000000 -0.100000
vn -0.000000 0.000000 -0.100000
vn -0.000000 0.000000 -0.100000
vn -0.000000 0.000000 -0.100000
vn 0.100000 0.000000 -0.000000
vn 0.100000 0.000000 -0.000000
vn 0.100000 0.000000 -0.000000
vn 0.100000 0.000000 -0.000000
vn 0.000000 -0.100000 0.000000
vn 0.000000 -0.100000 0.000000
vn 0.000000 -0.100000 0.000000
vn 0.000000 -0.100000 0.000000
vn -0.100000 0.000000 0.000000
vn -0.100000 0.000000 0.000000
vn -0.100000 0.000000 0.000000
vn -0.100000 0.000000 0.000000
vn -0.000000 0.100000 -0.000000
vn -0.000000 0.100000 -0.000000
vn -0.000000 0.100000 -0.000000
vn -0.000000 0.100000 -0.000000
usemtl Steel_-_Satin
f 1/1/1 2/2/2 4/3/3
f 4/3/3 2/2/2 3/4/4
f 2/5/5 5/6/6 3/7/7
f 3/7/7 5/6/6 6/8/8
f 5/9/9 7/10/10 6/11/11
f 6/11/11 7/10/10 8/12/12
f 7/13/13 9/14/14 8/15/15
f 8/15/15 9/14/14 10/16/16
f 9/17/17 11/18/18 10/19/19
f 10/19/19 11/18/18 12/20/20
f 11/21/21 1/22/22 12/23/23
f 12/23/23 1/22/22 4/24/24
f 12/25/25 4/26/26 10/27/27
f 10/27/27 4/26/26 3/28/28
f 10/27/27 3/28/28 8/29/29
f 8/29/29 3/28/28 6/30/30
f 5/31/31 2/32/32 15/33/33
f 15/33/33 2/32/32 1/34/34
f 15/33/33 1/34/34 14/35/35
f 14/35/35 1/34/34 11/36/36
f 14/35/35 11/36/36 13/37/37
f 13/37/37 11/36/36 9/38/38
f 13/37/37 9/38/38 7/39/39
f 13/37/37 7/39/39 16/40/40
f 16/40/40 7/39/39 5/31/31
f 16/40/40 5/31/31 15/33/33
f 18/41/41 19/42/42 17/43/43
f 17/43/43 19/42/42 20/44/44
f 16/45/45 19/46/46 13/47/47
f 13/47/47 19/46/46 18/48/48
f 15/49/49 20/50/50 16/51/51
f 16/51/51 20/50/50 19/52/52
f 14/53/53 17/54/54 15/55/55
f 15/55/55 17/54/54 20/56/56
f 13/57/57 18/58/58 14/59/59
f 14/59/59 18/58/58 17/60/60

# 20 vertices
# 60 texture params
# 60 normals
# 36 facets

# 1 groups
