# Blender v2.90.1 OBJ File: 'untitled.blend'
# www.blender.org
mtllib item_000036.mtl
o Cube_Cube.001
v -0.168580 1.957229 0.022606
v -0.843287 0.798773 1.506773
v -1.109016 0.798773 -1.309144
v 1.462478 0.810076 -0.131312
vt 0.375000 0.750000
vt 0.375000 0.500000
vt 0.625000 0.750000
vt 0.375000 1.000000
vt 0.125000 0.750000
vn 0.3374 0.5792 -0.7421
vn -0.8155 0.5736 0.0770
vn 0.4702 0.5792 0.6659
vn 0.0046 -1.0000 -0.0004
usemtl None
s off
f 1/1/1 4/2/1 3/3/1
f 1/1/2 3/3/2 2/4/2
f 4/2/3 1/1/3 2/5/3
f 2/4/4 3/3/4 4/2/4
o Cube.001_Cube.003
v -0.168579 -1.957229 -0.022606
v -0.843287 -0.798773 -1.506773
v -1.109016 -0.798773 1.309144
v 1.462478 -0.810076 0.131312
vt 0.375000 0.750000
vt 0.375000 0.500000
vt 0.625000 0.750000
vt 0.375000 1.000000
vt 0.125000 0.750000
vn 0.3374 -0.5792 0.7421
vn -0.8155 -0.5736 -0.0770
vn 0.4702 -0.5792 -0.6659
vn 0.0046 1.0000 0.0004
usemtl None
s off
f 5/6/5 8/7/5 7/8/5
f 5/6/6 7/8/6 6/9/6
f 8/7/7 5/6/7 6/10/7
f 6/9/8 7/8/8 8/7/8
