# Blender v2.90.1 OBJ File: 'untitled.blend'
# www.blender.org
mtllib item_000024.mtl
o Cube_Cube.001
v -0.104598 1.613069 0.134125
v 0.452112 0.454613 1.666461
v -1.708359 0.454613 -0.159017
v 0.952770 0.465916 -1.117280
vt 0.375000 0.750000
vt 0.375000 0.500000
vt 0.625000 0.750000
vt 0.375000 1.000000
vt 0.125000 0.750000
vn -0.2784 0.5792 -0.7662
vn -0.5287 0.5736 0.6257
vn 0.8019 0.5792 0.1466
vn 0.0030 -1.0000 -0.0035
usemtl None
s off
f 1/1/1 4/2/1 3/3/1
f 1/1/2 3/3/2 2/4/2
f 4/2/3 1/1/3 2/5/3
f 2/4/4 3/3/4 4/2/4
o Cube.001_Cube.003
v -0.104598 -1.613069 -0.134124
v 0.452112 -0.454614 -1.666461
v -1.708359 -0.454613 0.159017
v 0.952770 -0.465916 1.117280
vt 0.375000 0.750000
vt 0.375000 0.500000
vt 0.625000 0.750000
vt 0.375000 1.000000
vt 0.125000 0.750000
vn -0.2784 -0.5792 0.7662
vn -0.5287 -0.5736 -0.6257
vn 0.8019 -0.5792 -0.1466
vn 0.0030 1.0000 0.0035
usemtl None
s off
f 5/6/5 8/7/5 7/8/5
f 5/6/6 7/8/6 6/9/6
f 8/7/7 5/6/7 6/10/7
f 6/9/8 7/8/8 8/7/8
