# Blender v2.90.1 OBJ File: 'untitled.blend'
# www.blender.org
mtllib item_000015.mtl
o Cube_Cube.001
v -0.042510 1.527029 0.164691
v 1.078548 0.368573 1.348418
v -1.630300 0.368573 0.534694
v 0.428822 0.379876 -1.404349
vt 0.375000 0.750000
vt 0.375000 0.500000
vt 0.625000 0.750000
vt 0.375000 1.000000
vt 0.125000 0.750000
vn -0.5605 0.5792 -0.5919
vn -0.2357 0.5736 0.7845
vn 0.7939 0.5792 -0.1850
vn 0.0013 -1.0000 -0.0044
usemtl None
s off
f 1/1/1 4/2/1 3/3/1
f 1/1/2 3/3/2 2/4/2
f 4/2/3 1/1/3 2/5/3
f 2/4/4 3/3/4 4/2/4
o Cube.001_Cube.003
v -0.042510 -1.527029 -0.164690
v 1.078548 -0.368574 -1.348418
v -1.630300 -0.368573 -0.534694
v 0.428822 -0.379876 1.404349
vt 0.375000 0.750000
vt 0.375000 0.500000
vt 0.625000 0.750000
vt 0.375000 1.000000
vt 0.125000 0.750000
vn -0.5605 -0.5792 0.5919
vn -0.2357 -0.5736 -0.7845
vn 0.7939 -0.5792 0.1850
vn 0.0013 1.0000 0.0044
usemtl None
s off
f 5/6/5 8/7/5 7/8/5
f 5/6/6 7/8/6 6/9/6
f 8/7/7 5/6/7 6/10/7
f 6/9/8 7/8/8 8/7/8
