# Blender v2.90.1 OBJ File: 'untitled.blend'
# www.blender.org
mtllib item_000037.mtl
o Cube_Cube.001
v -0.169432 2.074922 0.014932
v -0.910800 0.916467 1.466949
v -1.048460 0.916467 -1.358126
v 1.466931 0.927769 -0.064804
vt 0.375000 0.750000
vt 0.375000 0.500000
vt 0.625000 0.750000
vt 0.375000 1.000000
vt 0.125000 0.750000
vn 0.3707 0.5792 -0.7260
vn -0.8182 0.5736 0.0399
vn 0.4395 0.5792 0.6865
vn 0.0046 -1.0000 -0.0002
usemtl None
s off
f 1/1/1 4/2/1 3/3/1
f 1/1/2 3/3/2 2/4/2
f 4/2/3 1/1/3 2/5/3
f 2/4/4 3/3/4 4/2/4
o Cube.001_Cube.003
v -0.169432 -2.074922 -0.014932
v -0.910800 -0.916467 -1.466949
v -1.048460 -0.916467 1.358126
v 1.466931 -0.927769 0.064805
vt 0.375000 0.750000
vt 0.375000 0.500000
vt 0.625000 0.750000
vt 0.375000 1.000000
vt 0.125000 0.750000
vn 0.3707 -0.5792 0.7260
vn -0.8182 -0.5736 -0.0399
vn 0.4395 -0.5792 -0.6865
vn 0.0046 1.0000 0.0002
usemtl None
s off
f 5/6/5 8/7/5 7/8/5
f 5/6/6 7/8/6 6/9/6
f 8/7/7 5/6/7 6/10/7
f 6/9/8 7/8/8 8/7/8
