# Blender v2.90.1 OBJ File: 'untitled.blend'
# www.blender.org
mtllib item_000012.mtl
o Cube_Cube.001
v -0.014924 1.325069 0.169433
v 1.285092 0.166613 1.153272
v -1.520531 0.166613 0.794833
v 0.192694 0.177916 -1.455663
vt 0.375000 0.750000
vt 0.375000 0.500000
vt 0.625000 0.750000
vt 0.375000 1.000000
vt 0.125000 0.750000
vn -0.6500 0.5792 -0.4919
vn -0.1038 0.5736 0.8125
vn 0.7528 0.5792 -0.3127
vn 0.0006 -1.0000 -0.0046
usemtl None
s off
f 1/1/1 4/2/1 3/3/1
f 1/1/2 3/3/2 2/4/2
f 4/2/3 1/1/3 2/5/3
f 2/4/4 3/3/4 4/2/4
o Cube.001_Cube.003
v -0.014924 -1.325069 -0.169432
v 1.285092 -0.166614 -1.153272
v -1.520532 -0.166613 -0.794833
v 0.192694 -0.177916 1.455663
vt 0.375000 0.750000
vt 0.375000 0.500000
vt 0.625000 0.750000
vt 0.375000 1.000000
vt 0.125000 0.750000
vn -0.6500 -0.5792 0.4919
vn -0.1038 -0.5736 -0.8125
vn 0.7528 -0.5792 0.3127
vn 0.0006 1.0000 0.0046
usemtl None
s off
f 5/6/5 8/7/5 7/8/5
f 5/6/6 7/8/6 6/9/6
f 8/7/7 5/6/7 6/10/7
f 6/9/8 7/8/8 8/7/8
