# Blender v2.90.1 OBJ File: 'untitled.blend'
# www.blender.org
mtllib item_000031.mtl
o Cube_Cube.001
v -0.150217 1.332363 0.079782
v -0.267096 0.173907 1.705918
v -1.494846 0.173907 -0.842146
v 1.325693 0.185210 -0.631365
vt 0.375000 0.750000
vt 0.375000 0.500000
vt 0.625000 0.750000
vt 0.375000 1.000000
vt 0.125000 0.750000
vn 0.0584 0.5792 -0.8131
vn -0.7380 0.5736 0.3556
vn 0.6723 0.5792 0.4610
vn 0.0042 -1.0000 -0.0020
usemtl None
s off
f 1/1/1 4/2/1 3/3/1
f 1/1/2 3/3/2 2/4/2
f 4/2/3 1/1/3 2/5/3
f 2/4/4 3/3/4 4/2/4
o Cube.001_Cube.003
v -0.150216 -1.332363 -0.079781
v -0.267096 -0.173907 -1.705918
v -1.494846 -0.173907 0.842146
v 1.325693 -0.185210 0.631366
vt 0.375000 0.750000
vt 0.375000 0.500000
vt 0.625000 0.750000
vt 0.375000 1.000000
vt 0.125000 0.750000
vn 0.0584 -0.5792 0.8131
vn -0.7380 -0.5736 -0.3556
vn 0.6723 -0.5792 -0.4610
vn 0.0042 1.0000 0.0020
usemtl None
s off
f 5/6/5 8/7/5 7/8/5
f 5/6/6 7/8/6 6/9/6
f 8/7/7 5/6/7 6/10/7
f 6/9/8 7/8/8 8/7/8
