# Blender v2.90.1 OBJ File: 'untitled.blend'
# www.blender.org
mtllib item_000026.mtl
o Cube_Cube.001
v -0.117400 1.470989 0.123075
v 0.284395 0.312533 1.703120
v -1.684124 0.312533 -0.327873
v 1.059008 0.323836 -1.017147
vt 0.375000 0.750000
vt 0.375000 0.500000
vt 0.625000 0.750000
vt 0.375000 1.000000
vt 0.125000 0.750000
vn -0.2009 0.5792 -0.7900
vn -0.5882 0.5736 0.5701
vn 0.7834 0.5792 0.2255
vn 0.0033 -1.0000 -0.0032
usemtl None
s off
f 1/1/1 4/2/1 3/3/1
f 1/1/2 3/3/2 2/4/2
f 4/2/3 1/1/3 2/5/3
f 2/4/4 3/3/4 4/2/4
o Cube.001_Cube.003
v -0.117400 -1.470989 -0.123074
v 0.284395 -0.312534 -1.703120
v -1.684124 -0.312533 0.327873
v 1.059008 -0.323836 1.017147
vt 0.375000 0.750000
vt 0.375000 0.500000
vt 0.625000 0.750000
vt 0.375000 1.000000
vt 0.125000 0.750000
vn -0.2009 -0.5792 0.7900
vn -0.5882 -0.5736 -0.5701
vn 0.7834 -0.5792 -0.2255
vn 0.0033 1.0000 0.0032
usemtl None
s off
f 5/6/5 8/7/5 7/8/5
f 5/6/6 7/8/6 6/9/6
f 8/7/7 5/6/7 6/10/7
f 6/9/8 7/8/8 8/7/8
