# Blender v2.90.1 OBJ File: 'untitled.blend'
# www.blender.org
mtllib item_000002.mtl
o Cube_Cube.001
v 0.085986 2.114269 0.146754
v 1.715585 0.955813 0.195617
v -0.778980 0.955813 1.528714
v -0.686181 0.967116 -1.298168
vt 0.375000 0.750000
vt 0.375000 0.500000
vt 0.625000 0.750000
vt 0.375000 1.000000
vt 0.125000 0.750000
vn -0.8148 0.5792 -0.0244
vn 0.3861 0.5736 0.7225
vn 0.4325 0.5792 -0.6910
vn -0.0022 -1.0000 -0.0041
usemtl None
s off
f 1/1/1 4/2/1 3/3/1
f 1/1/2 3/3/2 2/4/2
f 4/2/3 1/1/3 2/5/3
f 2/4/4 3/3/4 4/2/4
o Cube.001_Cube.003
v 0.085985 -2.114269 -0.146753
v 1.715585 -0.955814 -0.195617
v -0.778980 -0.955813 -1.528714
v -0.686181 -0.967116 1.298168
vt 0.375000 0.750000
vt 0.375000 0.500000
vt 0.625000 0.750000
vt 0.375000 1.000000
vt 0.125000 0.750000
vn -0.8148 -0.5792 0.0244
vn 0.3861 -0.5736 -0.7225
vn 0.4325 -0.5792 0.6910
vn -0.0022 1.0000 0.0041
usemtl None
s off
f 5/6/5 8/7/5 7/8/5
f 5/6/6 7/8/6 6/9/6
f 8/7/7 5/6/7 6/10/7
f 6/9/8 7/8/8 8/7/8
