# Blender v2.90.1 OBJ File: 'untitled.blend'
# www.blender.org
mtllib item_000007.mtl
o Cube_Cube.001
v 0.042366 1.475069 0.164728
v 1.595857 0.316613 0.659346
v -1.168937 0.316613 1.255931
v -0.303192 0.327916 -1.436718
vt 0.375000 0.750000
vt 0.375000 0.500000
vt 0.625000 0.750000
vt 0.375000 1.000000
vt 0.125000 0.750000
vn -0.7767 0.5792 -0.2473
vn 0.1728 0.5736 0.8007
vn 0.6057 0.5792 -0.5456
vn -0.0010 -1.0000 -0.0045
usemtl None
s off
f 1/1/1 4/2/1 3/3/1
f 1/1/2 3/3/2 2/4/2
f 4/2/3 1/1/3 2/5/3
f 2/4/4 3/3/4 4/2/4
o Cube.001_Cube.003
v 0.042366 -1.475069 -0.164727
v 1.595857 -0.316614 -0.659345
v -1.168937 -0.316613 -1.255931
v -0.303192 -0.327916 1.436718
vt 0.375000 0.750000
vt 0.375000 0.500000
vt 0.625000 0.750000
vt 0.375000 1.000000
vt 0.125000 0.750000
vn -0.7767 -0.5792 0.2473
vn 0.1728 -0.5736 -0.8007
vn 0.6057 -0.5792 0.5456
vn -0.0010 1.0000 0.0045
usemtl None
s off
f 5/6/5 8/7/5 7/8/5
f 5/6/6 7/8/6 6/9/6
f 8/7/7 5/6/7 6/10/7
f 6/9/8 7/8/8 8/7/8
