# Blender v2.90.1 OBJ File: 'untitled.blend'
# www.blender.org
mtllib item_000023.mtl
o Cube_Cube.001
v -0.098302 1.678349 0.138805
v 0.528470 0.519893 1.643842
v -1.713874 0.519893 -0.080077
v 0.900240 0.531196 -1.160023
vt 0.375000 0.750000
vt 0.375000 0.500000
vt 0.625000 0.750000
vt 0.375000 1.000000
vt 0.125000 0.750000
vn -0.3134 0.5792 -0.7525
vn -0.4993 0.5736 0.6494
vn 0.8078 0.5792 0.1094
vn 0.0028 -1.0000 -0.0037
usemtl None
s off
f 1/1/1 4/2/1 3/3/1
f 1/1/2 3/3/2 2/4/2
f 4/2/3 1/1/3 2/5/3
f 2/4/4 3/3/4 4/2/4
o Cube.001_Cube.003
v -0.098302 -1.678349 -0.138804
v 0.528470 -0.519894 -1.643842
v -1.713874 -0.519893 0.080077
v 0.900240 -0.531196 1.160023
vt 0.375000 0.750000
vt 0.375000 0.500000
vt 0.625000 0.750000
vt 0.375000 1.000000
vt 0.125000 0.750000
vn -0.3134 -0.5792 0.7525
vn -0.4993 -0.5736 -0.6494
vn 0.8078 -0.5792 -0.1094
vn 0.0028 1.0000 0.0037
usemtl None
s off
f 5/6/5 8/7/5 7/8/5
f 5/6/6 7/8/6 6/9/6
f 8/7/7 5/6/7 6/10/7
f 6/9/8 7/8/8 8/7/8
