# Blender v2.90.1 OBJ File: 'untitled.blend'
# www.blender.org
mtllib item_000028.mtl
o Cube_Cube.001
v -0.130580 1.351949 0.108991
v 0.089739 0.193493 1.724368
v -1.636173 0.193493 -0.516442
v 1.167360 0.204796 -0.890705
vt 0.375000 0.750000
vt 0.375000 0.500000
vt 0.625000 0.750000
vt 0.375000 1.000000
vt 0.125000 0.750000
vn -0.1102 0.5792 -0.8077
vn -0.6490 0.5736 0.4998
vn 0.7528 0.5792 0.3127
vn 0.0037 -1.0000 -0.0028
usemtl None
s off
f 1/1/1 4/2/1 3/3/1
f 1/1/2 3/3/2 2/4/2
f 4/2/3 1/1/3 2/5/3
f 2/4/4 3/3/4 4/2/4
o Cube.001_Cube.003
v -0.130579 -1.351949 -0.108991
v 0.089739 -0.193494 -1.724368
v -1.636173 -0.193493 0.516442
v 1.167360 -0.204796 0.890705
vt 0.375000 0.750000
vt 0.375000 0.500000
vt 0.625000 0.750000
vt 0.375000 1.000000
vt 0.125000 0.750000
vn -0.1102 -0.5792 0.8077
vn -0.6490 -0.5736 -0.4998
vn 0.7528 -0.5792 -0.3127
vn 0.0037 1.0000 0.0028
usemtl None
s off
f 5/6/5 8/7/5 7/8/5
f 5/6/6 7/8/6 6/9/6
f 8/7/7 5/6/7 6/10/7
f 6/9/8 7/8/8 8/7/8
