# Blender v2.90.1 OBJ File: 'untitled.blend'
# www.blender.org
mtllib item_000035.mtl
o Cube_Cube.001
v -0.166982 1.817696 0.032359
v -0.754347 0.659240 1.553209
v -1.183181 0.659240 -1.242521
v 1.452382 0.670543 -0.216033
vt 0.375000 0.750000
vt 0.375000 0.500000
vt 0.625000 0.750000
vt 0.375000 1.000000
vt 0.125000 0.750000
vn 0.2937 0.5792 -0.7604
vn -0.8097 0.5736 0.1242
vn 0.5081 0.5792 0.6374
vn 0.0046 -1.0000 -0.0007
usemtl None
s off
f 1/1/1 4/2/1 3/3/1
f 1/1/2 3/3/2 2/4/2
f 4/2/3 1/1/3 2/5/3
f 2/4/4 3/3/4 4/2/4
o Cube.001_Cube.003
v -0.166982 -1.817696 -0.032359
v -0.754347 -0.659240 -1.553209
v -1.183181 -0.659240 1.242521
v 1.452383 -0.670543 0.216033
vt 0.375000 0.750000
vt 0.375000 0.500000
vt 0.625000 0.750000
vt 0.375000 1.000000
vt 0.125000 0.750000
vn 0.2937 -0.5792 0.7604
vn -0.8097 -0.5736 -0.1242
vn 0.5081 -0.5792 -0.6374
vn 0.0046 1.0000 0.0007
usemtl None
s off
f 5/6/5 8/7/5 7/8/5
f 5/6/6 7/8/6 6/9/6
f 8/7/7 5/6/7 6/10/7
f 6/9/8 7/8/8 8/7/8
