# Blender v2.90.1 OBJ File: 'untitled.blend'
# www.blender.org
mtllib item_000016.mtl
o Cube_Cube.001
v -0.050621 1.602509 0.162381
v 1.010380 0.444053 1.400225
v -1.654801 0.444053 0.453222
v 0.497909 0.455356 -1.381366
vt 0.375000 0.750000
vt 0.375000 0.500000
vt 0.625000 0.750000
vt 0.375000 1.000000
vt 0.125000 0.750000
vn -0.5305 0.5792 -0.6189
vn -0.2743 0.5736 0.7719
vn 0.8021 0.5792 -0.1454
vn 0.0015 -1.0000 -0.0043
usemtl None
s off
f 1/1/1 4/2/1 3/3/1
f 1/1/2 3/3/2 2/4/2
f 4/2/3 1/1/3 2/5/3
f 2/4/4 3/3/4 4/2/4
o Cube.001_Cube.003
v -0.050621 -1.602509 -0.162381
v 1.010380 -0.444054 -1.400225
v -1.654801 -0.444053 -0.453222
v 0.497909 -0.455356 1.381366
vt 0.375000 0.750000
vt 0.375000 0.500000
vt 0.625000 0.750000
vt 0.375000 1.000000
vt 0.125000 0.750000
vn -0.5305 -0.5792 0.6189
vn -0.2743 -0.5736 -0.7719
vn 0.8021 -0.5792 0.1454
vn 0.0015 1.0000 0.0043
usemtl None
s off
f 5/6/5 8/7/5 7/8/5
f 5/6/6 7/8/6 6/9/6
f 8/7/7 5/6/7 6/10/7
f 6/9/8 7/8/8 8/7/8
