# Blender v2.90.1 OBJ File: 'untitled.blend'
# www.blender.org
mtllib item_000034.mtl
o Cube_Cube.001
v -0.164411 1.670882 0.043580
v -0.647563 0.512427 1.600675
v -1.264514 0.512427 -1.159647
v 1.434444 0.523730 -0.313775
vt 0.375000 0.750000
vt 0.375000 0.500000
vt 0.625000 0.750000
vt 0.375000 1.000000
vt 0.125000 0.750000
vn 0.2416 0.5792 -0.7785
vn -0.7994 0.5736 0.1787
vn 0.5501 0.5792 0.6016
vn 0.0045 -1.0000 -0.0010
usemtl None
s off
f 1/1/1 4/2/1 3/3/1
f 1/1/2 3/3/2 2/4/2
f 4/2/3 1/1/3 2/5/3
f 2/4/4 3/3/4 4/2/4
o Cube.001_Cube.003
v -0.164411 -1.670882 -0.043579
v -0.647563 -0.512427 -1.600675
v -1.264514 -0.512427 1.159647
v 1.434444 -0.523729 0.313776
vt 0.375000 0.750000
vt 0.375000 0.500000
vt 0.625000 0.750000
vt 0.375000 1.000000
vt 0.125000 0.750000
vn 0.2416 -0.5792 0.7785
vn -0.7994 -0.5736 -0.1787
vn 0.5501 -0.5792 -0.6016
vn 0.0045 1.0000 0.0010
usemtl None
s off
f 5/6/5 8/7/5 7/8/5
f 5/6/6 7/8/6 6/9/6
f 8/7/7 5/6/7 6/10/7
f 6/9/8 7/8/8 8/7/8
