# Blender v2.90.1 OBJ File: 'untitled.blend'
# www.blender.org
mtllib item_000004.mtl
o Cube_Cube.001
v 0.072976 1.881149 0.153638
v 1.692248 0.722693 0.343211
v -0.908233 0.722693 1.455640
v -0.571375 0.733996 -1.352633
vt 0.375000 0.750000
vt 0.375000 0.500000
vt 0.625000 0.750000
vt 0.375000 1.000000
vt 0.125000 0.750000
vn -0.8096 0.5792 -0.0948
vn 0.3222 0.5736 0.7531
vn 0.4906 0.5792 -0.6510
vn -0.0018 -1.0000 -0.0042
usemtl None
s off
f 1/1/1 4/2/1 3/3/1
f 1/1/2 3/3/2 2/4/2
f 4/2/3 1/1/3 2/5/3
f 2/4/4 3/3/4 4/2/4
o Cube.001_Cube.003
v 0.072975 -1.881149 -0.153638
v 1.692248 -0.722694 -0.343210
v -0.908233 -0.722693 -1.455640
v -0.571375 -0.733996 1.352633
vt 0.375000 0.750000
vt 0.375000 0.500000
vt 0.625000 0.750000
vt 0.375000 1.000000
vt 0.125000 0.750000
vn -0.8096 -0.5792 0.0948
vn 0.3222 -0.5736 -0.7531
vn 0.4906 -0.5792 0.6510
vn -0.0018 1.0000 0.0042
usemtl None
s off
f 5/6/5 8/7/5 7/8/5
f 5/6/6 7/8/6 6/9/6
f 8/7/7 5/6/7 6/10/7
f 6/9/8 7/8/8 8/7/8
