# Blender v2.90.1 OBJ File: 'untitled.blend'
# www.blender.org
mtllib item_000038.mtl
o Cube_Cube.001
v -0.169799 2.156216 0.009921
v -0.953733 0.997760 1.439406
v -1.007887 0.997760 -1.388503
v 1.468205 1.009063 -0.021446
vt 0.375000 0.750000
vt 0.375000 0.500000
vt 0.625000 0.750000
vt 0.375000 1.000000
vt 0.125000 0.750000
vn 0.3920 0.5792 -0.7147
vn -0.8190 0.5736 0.0157
vn 0.4190 0.5792 0.6992
vn 0.0046 -1.0000 -0.0001
usemtl None
s off
f 1/1/1 4/2/1 3/3/1
f 1/1/2 3/3/2 2/4/2
f 4/2/3 1/1/3 2/5/3
f 2/4/4 3/3/4 4/2/4
o Cube.001_Cube.003
v -0.169799 -2.156216 -0.009921
v -0.953733 -0.997760 -1.439406
v -1.007886 -0.997760 1.388503
v 1.468205 -1.009063 0.021446
vt 0.375000 0.750000
vt 0.375000 0.500000
vt 0.625000 0.750000
vt 0.375000 1.000000
vt 0.125000 0.750000
vn 0.3920 -0.5792 0.7147
vn -0.8190 -0.5736 -0.0157
vn 0.4190 -0.5792 -0.6992
vn 0.0046 1.0000 0.0001
usemtl None
s off
f 5/6/5 8/7/5 7/8/5
f 5/6/6 7/8/6 6/9/6
f 8/7/7 5/6/7 6/10/7
f 6/9/8 7/8/8 8/7/8
