# Blender v2.90.1 OBJ File: 'untitled.blend'
# www.blender.org
mtllib item_000017.mtl
o Cube_Cube.001
v -0.058287 1.671869 0.159790
v 0.942637 0.513413 1.446697
v -1.674484 0.513413 0.374001
v 0.563048 0.524716 -1.356120
vt 0.375000 0.750000
vt 0.375000 0.500000
vt 0.625000 0.750000
vt 0.375000 1.000000
vt 0.125000 0.750000
vn -0.5005 0.5792 -0.6435
vn -0.3107 0.5736 0.7580
vn 0.8081 0.5792 -0.1071
vn 0.0018 -1.0000 -0.0043
usemtl None
s off
f 1/1/1 4/2/1 3/3/1
f 1/1/2 3/3/2 2/4/2
f 4/2/3 1/1/3 2/5/3
f 2/4/4 3/3/4 4/2/4
o Cube.001_Cube.003
v -0.058287 -1.671869 -0.159789
v 0.942637 -0.513414 -1.446697
v -1.674484 -0.513413 -0.374001
v 0.563048 -0.524716 1.356120
vt 0.375000 0.750000
vt 0.375000 0.500000
vt 0.625000 0.750000
vt 0.375000 1.000000
vt 0.125000 0.750000
vn -0.5005 -0.5792 0.6435
vn -0.3107 -0.5736 -0.7580
vn 0.8081 -0.5792 0.1071
vn 0.0018 1.0000 0.0043
usemtl None
s off
f 5/6/5 8/7/5 7/8/5
f 5/6/6 7/8/6 6/9/6
f 8/7/7 5/6/7 6/10/7
f 6/9/8 7/8/8 8/7/8
