# Blender v2.90.1 OBJ File: 'untitled.blend'
# www.blender.org
mtllib item_000014.mtl
o Cube_Cube.001
v -0.033894 1.451549 0.166677
v 1.147166 0.293093 1.290545
v -1.600309 0.293093 0.618697
v 0.355260 0.304396 -1.424737
vt 0.375000 0.750000
vt 0.375000 0.500000
vt 0.625000 0.750000
vt 0.375000 1.000000
vt 0.125000 0.750000
vn -0.5905 0.5792 -0.5619
vn -0.1946 0.5736 0.7957
vn 0.7832 0.5792 -0.2260
vn 0.0011 -1.0000 -0.0045
usemtl None
s off
f 1/1/1 4/2/1 3/3/1
f 1/1/2 3/3/2 2/4/2
f 4/2/3 1/1/3 2/5/3
f 2/4/4 3/3/4 4/2/4
o Cube.001_Cube.003
v -0.033894 -1.451549 -0.166677
v 1.147166 -0.293094 -1.290545
v -1.600309 -0.293093 -0.618697
v 0.355260 -0.304396 1.424737
vt 0.375000 0.750000
vt 0.375000 0.500000
vt 0.625000 0.750000
vt 0.375000 1.000000
vt 0.125000 0.750000
vn -0.5905 -0.5792 0.5619
vn -0.1946 -0.5736 -0.7957
vn 0.7832 -0.5792 0.2260
vn 0.0011 1.0000 0.0045
usemtl None
s off
f 5/6/5 8/7/5 7/8/5
f 5/6/6 7/8/6 6/9/6
f 8/7/7 5/6/7 6/10/7
f 6/9/8 7/8/8 8/7/8
