# Blender v2.90.1 OBJ File: 'untitled.blend'
# www.blender.org
mtllib item_000011.mtl
o Cube_Cube.001
v -0.004474 1.286309 0.170030
v 1.353597 0.127854 1.072041
v -1.468762 0.127854 0.886857
v 0.102790 0.139156 -1.464759
vt 0.375000 0.750000
vt 0.375000 0.500000
vt 0.625000 0.750000
vt 0.375000 1.000000
vt 0.125000 0.750000
vn -0.6790 0.5792 -0.4510
vn -0.0536 0.5736 0.8174
vn 0.7321 0.5792 -0.3584
vn 0.0003 -1.0000 -0.0046
usemtl None
s off
f 1/1/1 4/2/1 3/3/1
f 1/1/2 3/3/2 2/4/2
f 4/2/3 1/1/3 2/5/3
f 2/4/4 3/3/4 4/2/4
o Cube.001_Cube.003
v -0.004474 -1.286309 -0.170029
v 1.353597 -0.127854 -1.072041
v -1.468762 -0.127854 -0.886857
v 0.102790 -0.139156 1.464759
vt 0.375000 0.750000
vt 0.375000 0.500000
vt 0.625000 0.750000
vt 0.375000 1.000000
vt 0.125000 0.750000
vn -0.6790 -0.5792 0.4510
vn -0.0536 -0.5736 -0.8174
vn 0.7321 -0.5792 0.3584
vn 0.0003 1.0000 0.0046
usemtl None
s off
f 5/6/5 8/7/5 7/8/5
f 5/6/6 7/8/6 6/9/6
f 8/7/7 5/6/7 6/10/7
f 6/9/8 7/8/8 8/7/8
