# WaveFront *.obj file (generated by Autodesk ATF)

mtllib 7e5ae5b3-e501-40f2-8bb4-4f4eaf50eeb7.mtl

g Body1

v 0.000000 -5.000000 10.000000
v -5.000000 0.000000 10.000000
v -5.000000 0.000000 5.000000
v 0.000000 -5.000000 5.000000
v 0.000000 5.000000 10.000000
v 0.000000 5.000000 5.000000
v 5.000000 0.000000 10.000000
v 5.000000 0.000000 5.000000
v 0.000000 20.000000 10.000000
v -20.000000 0.000000 10.000000
v -20.000000 0.000000 5.000000
v 0.000000 20.000000 5.000000
v 0.000000 -20.000000 10.000000
v 0.000000 -20.000000 5.000000
v 20.000000 0.000000 10.000000
v 20.000000 0.000000 5.000000
v 25.000000 25.000000 10.000000
v -25.000000 25.000000 10.000000
v -25.000000 -25.000000 10.000000
v 25.000000 -25.000000 10.000000
v -25.000000 25.000000 0.000000
v 25.000000 25.000000 -0.000000
v 25.000000 -25.000000 -0.000000
v -25.000000 -25.000000 0.000000
vt -0.707107 0.000000 0.000000
vt -0.000000 0.000000 0.000000
vt -0.707107 0.500000 0.000000
vt -0.000000 0.500000 0.000000
vt -0.707107 0.000000 0.000000
vt -0.000000 0.000000 0.000000
vt -0.707107 0.500000 0.000000
vt 0.000000 0.500000 0.000000
vt -0.707107 0.000000 0.000000
vt -0.000000 0.000000 0.000000
vt -0.707107 0.500000 0.000000
vt -0.000000 0.500000 0.000000
vt -0.707107 0.000000 0.000000
vt -0.000000 0.000000 0.000000
vt -0.707107 0.500000 0.000000
vt -0.000000 0.500000 0.000000
vt -2.828427 0.000000 0.000000
vt -0.000000 0.000000 0.000000
vt -2.828427 0.500000 0.000000
vt -0.000000 0.500000 0.000000
vt -2.828427 0.000000 0.000000
vt -0.000000 0.000000 0.000000
vt -2.828427 0.500000 0.000000
vt -0.000000 0.500000 0.000000
vt -2.828427 0.000000 0.000000
vt -0.000000 0.000000 0.000000
vt -2.828427 0.500000 0.000000
vt -0.000000 0.500000 0.000000
vt -2.828427 0.000000 0.000000
vt 0.000000 0.000000 0.000000
vt -2.828427 0.500000 0.000000
vt -0.000000 0.500000 0.000000
vt 0.000000 2.000000 0.000000
vt 0.000000 0.500000 0.000000
vt 2.000000 0.000000 0.000000
vt 0.500000 0.000000 0.000000
vt 0.000000 -2.000000 0.000000
vt 0.000000 -0.500000 0.000000
vt -2.000000 0.000000 0.000000
vt -0.500000 0.000000 0.000000
vt -2.500000 2.500000 0.000000
vt -0.000000 2.000000 0.000000
vt 2.500000 2.500000 0.000000
vt 2.000000 0.000000 0.000000
vt 2.500000 -2.500000 0.000000
vt -0.000000 -2.000000 0.000000
vt -2.500000 -2.500000 0.000000
vt -2.000000 0.000000 0.000000
vt -0.000000 -0.500000 0.000000
vt 0.500000 0.000000 0.000000
vt -0.500000 0.000000 0.000000
vt -0.000000 0.500000 0.000000
vt -2.500000 -2.500000 0.000000
vt 2.500000 -2.500000 0.000000
vt -2.500000 2.500000 0.000000
vt 2.500000 2.500000 0.000000
vt -0.750000 -2.500000 0.000000
vt 0.250000 -2.500000 0.000000
vt -0.750000 2.500000 0.000000
vt 0.250000 2.500000 0.000000
vt 0.750000 2.500000 0.000000
vt -0.250000 2.500000 0.000000
vt 0.750000 -2.500000 0.000000
vt -0.250000 -2.500000 0.000000
vt 0.750000 2.500000 0.000000
vt -0.250000 2.500000 0.000000
vt 0.750000 -2.500000 0.000000
vt -0.250000 -2.500000 0.000000
vt -0.750000 -2.500000 0.000000
vt 0.250000 -2.500000 0.000000
vt -0.750000 2.500000 0.000000
vt 0.250000 2.500000 0.000000
vn -0.070711 -0.070711 0.000000
vn -0.070711 -0.070711 0.000000
vn -0.070711 -0.070711 0.000000
vn -0.070711 -0.070711 0.000000
vn -0.070711 0.070711 0.000000
vn -0.070711 0.070711 0.000000
vn -0.070711 0.070711 0.000000
vn -0.070711 0.070711 0.000000
vn 0.070711 0.070711 -0.000000
vn 0.070711 0.070711 -0.000000
vn 0.070711 0.070711 -0.000000
vn 0.070711 0.070711 -0.000000
vn 0.070711 -0.070711 -0.000000
vn 0.070711 -0.070711 -0.000000
vn 0.070711 -0.070711 -0.000000
vn 0.070711 -0.070711 -0.000000
vn 0.070711 -0.070711 -0.000000
vn 0.070711 -0.070711 -0.000000
vn 0.070711 -0.070711 -0.000000
vn 0.070711 -0.070711 -0.000000
vn 0.070711 0.070711 -0.000000
vn 0.070711 0.070711 -0.000000
vn 0.070711 0.070711 -0.000000
vn 0.070711 0.070711 -0.000000
vn -0.070711 0.070711 0.000000
vn -0.070711 0.070711 0.000000
vn -0.070711 0.070711 0.000000
vn -0.070711 0.070711 0.000000
vn -0.070711 -0.070711 0.000000
vn -0.070711 -0.070711 0.000000
vn -0.070711 -0.070711 0.000000
vn -0.070711 -0.070711 0.000000
vn 0.000000 -0.000000 0.100000
vn 0.000000 -0.000000 0.100000
vn 0.000000 -0.000000 0.100000
vn 0.000000 -0.000000 0.100000
vn 0.000000 -0.000000 0.100000
vn 0.000000 -0.000000 0.100000
vn 0.000000 -0.000000 0.100000
vn 0.000000 -0.000000 0.100000
vn 0.000000 0.000000 0.100000
vn 0.000000 0.000000 0.100000
vn 0.000000 0.000000 0.100000
vn 0.000000 0.000000 0.100000
vn 0.000000 0.000000 0.100000
vn 0.000000 0.000000 0.100000
vn 0.000000 0.000000 0.100000
vn 0.000000 0.000000 0.100000
vn 0.000000 0.000000 0.100000
vn 0.000000 0.000000 0.100000
vn 0.000000 0.000000 0.100000
vn 0.000000 0.000000 0.100000
vn -0.000000 0.000000 -0.100000
vn -0.000000 0.000000 -0.100000
vn -0.000000 0.000000 -0.100000
vn -0.000000 0.000000 -0.100000
vn 0.100000 0.000000 -0.000000
vn 0.100000 0.000000 -0.000000
vn 0.100000 0.000000 -0.000000
vn 0.100000 0.000000 -0.000000
vn 0.000000 -0.100000 0.000000
vn 0.000000 -0.100000 0.000000
vn 0.000000 -0.100000 0.000000
vn 0.000000 -0.100000 0.000000
vn -0.100000 0.000000 0.000000
vn -0.100000 0.000000 0.000000
vn -0.100000 0.000000 0.000000
vn -0.100000 0.000000 0.000000
vn -0.000000 0.100000 -0.000000
vn -0.000000 0.100000 -0.000000
vn -0.000000 0.100000 -0.000000
vn -0.000000 0.100000 -0.000000
usemtl Steel_-_Satin
f 1/1/1 2/2/2 4/3/3
f 4/3/3 2/2/2 3/4/4
f 2/5/5 5/6/6 3/7/7
f 3/7/7 5/6/6 6/8/8
f 5/9/9 7/10/10 6/11/11
f 6/11/11 7/10/10 8/12/12
f 7/13/13 1/14/14 8/15/15
f 8/15/15 1/14/14 4/16/16
f 9/17/17 10/18/18 12/19/19
f 12/19/19 10/18/18 11/20/20
f 10/21/21 13/22/22 11/23/23
f 11/23/23 13/22/22 14/24/24
f 13/25/25 15/26/26 14/27/27
f 14/27/27 15/26/26 16/28/28
f 15/29/29 9/30/30 16/31/31
f 16/31/31 9/30/30 12/32/32
f 12/33/33 6/34/34 16/35/35
f 16/35/35 6/34/34 8/36/36
f 16/35/35 8/36/36 14/37/37
f 14/37/37 8/36/36 4/38/38
f 14/37/37 4/38/38 11/39/39
f 11/39/39 4/38/38 3/40/40
f 11/39/39 3/40/40 6/34/34
f 12/33/33 11/39/39 6/34/34
f 18/41/41 9/42/42 17/43/43
f 17/43/43 9/42/42 15/44/44
f 17/43/43 15/44/44 20/45/45
f 20/45/45 15/44/44 13/46/46
f 20/45/45 13/46/46 19/47/47
f 19/47/47 13/46/46 10/48/48
f 19/47/47 10/48/48 18/41/41
f 18/41/41 10/48/48 9/42/42
f 1/49/49 7/50/50 2/51/51
f 2/51/51 7/50/50 5/52/52
f 22/53/53 23/54/54 21/55/55
f 21/55/55 23/54/54 24/56/56
f 20/57/57 23/58/58 17/59/59
f 17/59/59 23/58/58 22/60/60
f 19/61/61 24/62/62 20/63/63
f 20/63/63 24/62/62 23/64/64
f 18/65/65 21/66/66 19/67/67
f 19/67/67 21/66/66 24/68/68
f 17/69/69 22/70/70 18/71/71
f 18/71/71 22/70/70 21/72/72

# 24 vertices
# 72 texture params
# 72 normals
# 44 facets

# 1 groups
