# Blender v2.90.1 OBJ File: 'Map.blend'
# www.blender.org
mtllib Map.mtl
o Map
v -87.500000 8.750000 62.500000
v -87.500000 58.750000 62.500000
v -62.500000 8.750000 62.500000
v -62.500000 58.750000 62.500000
v -87.500000 8.750000 -12.500000
v -87.500000 58.750000 -12.500000
v -50.000000 8.750000 -12.500000
v -37.500000 58.750000 -12.500000
v -37.500000 2.500000 -12.500000
v -50.000000 2.500000 -12.500000
v -37.500000 2.500000 -37.500000
v -37.500000 58.750000 -37.500000
v -12.500000 2.500000 -37.500000
v -12.500000 58.750000 -37.500000
v -12.500000 2.500000 -50.000000
v -12.500000 8.750000 -50.000000
v -12.500000 58.750000 -87.500000
v -12.500000 8.750000 -87.500000
v 62.500000 8.750000 -87.500000
v 62.500000 58.750000 -87.500000
v 62.500000 8.750000 -62.500000
v 62.500000 58.750000 -62.500000
v 87.500000 8.750000 -62.500000
v 87.500000 58.750000 -62.500000
v -62.500000 0.000000 87.500000
v -62.500000 0.000000 112.500000
v -62.500000 8.750000 87.500000
v -62.500000 58.750000 112.500000
v -62.500000 58.750000 87.500000
v 12.500000 8.750000 87.500000
v 12.500000 58.750000 87.500000
v 12.500000 8.750000 50.000000
v 12.500000 58.750000 37.500000
v 12.500000 2.500000 37.500000
v 12.500000 2.500000 50.000000
v 37.500000 58.750000 37.500000
v 37.500000 58.750000 112.500000
v 37.500000 0.000000 112.500000
v 37.500000 0.000000 37.500000
v 37.500000 2.500000 37.500000
v -87.500000 58.750000 87.500000
v -87.500000 0.000000 87.500000
v -87.500000 0.000000 62.500000
v -112.500000 58.750000 62.500000
v -112.500000 0.000000 62.500000
v -112.500000 58.750000 -37.500000
v -112.500000 0.000000 -37.500000
v -37.500000 0.000000 -37.500000
v -37.500000 58.750000 -112.500000
v -37.500000 0.000000 -112.500000
v 62.500000 58.750000 -112.500000
v 62.500000 0.000000 -87.500000
v 62.500000 0.000000 -112.500000
v 87.500000 58.750000 -87.500000
v 87.500000 0.000000 -87.500000
v 87.500000 0.000000 -62.500000
v 112.500000 58.750000 -62.500000
v 112.500000 0.000000 -62.500000
v 87.500000 8.750000 12.500000
v 87.500000 58.750000 12.500000
v 50.000000 2.500000 12.500000
v 37.500000 2.500000 12.500000
v 50.000000 8.750000 12.500000
v 37.500000 58.750000 12.500000
v 112.500000 58.750000 37.500000
v 112.500000 0.000000 37.500000
v -37.500000 2.500000 37.500000
v -37.500000 27.500000 37.500000
v -12.500000 2.500000 37.500000
v -12.500000 27.500000 37.500000
v -12.500000 27.500000 12.500000
v -37.500000 27.500000 12.500000
v -37.500000 0.000000 37.500000
v -50.000000 0.000000 37.500000
v -50.000000 8.750000 37.500000
v -62.500000 32.500000 37.500000
v -37.500000 32.500000 37.500000
v -62.500000 8.750000 37.500000
v -37.500000 0.000000 50.000000
v -50.000000 0.000000 50.000000
v 37.500000 0.000000 -50.000000
v 37.500000 0.000000 -37.500000
v 50.000000 0.000000 -37.500000
v 50.000000 0.000000 -50.000000
v -12.500000 2.500000 50.000000
v -12.500000 8.750000 50.000000
v 37.500000 2.500000 -12.500000
v 37.500000 27.500000 -12.500000
v 37.500000 2.500000 -37.500000
v 37.500000 27.500000 -37.500000
v 50.000000 8.750000 -37.500000
v 62.500000 8.750000 -37.500000
v 50.000000 8.750000 -50.000000
v 37.500000 8.750000 -62.500000
v 62.500000 8.750000 -12.500000
v 50.000000 8.750000 -12.500000
v 12.500000 8.750000 -62.500000
v 12.500000 8.750000 -50.000000
v 37.500000 8.750000 -50.000000
v 50.000000 2.500000 -12.500000
v 12.500000 2.500000 -37.500000
v 12.500000 27.500000 -37.500000
v -37.500000 2.500000 12.500000
v -37.500000 8.750000 50.000000
v -50.000000 8.750000 50.000000
v -37.500000 8.750000 62.500000
v -62.500000 8.750000 12.500000
v -50.000000 8.750000 12.500000
v -12.500000 8.750000 62.500000
v -50.000000 2.500000 12.500000
v 12.500000 2.500000 -50.000000
v -12.500000 32.500000 62.500000
v -37.500000 32.500000 62.500000
v -12.500000 32.500000 12.500000
v -62.500000 32.500000 12.500000
v 12.500000 27.500000 12.500000
v 12.500000 27.500000 -12.500000
v -12.500000 27.500000 -12.500000
v 12.500000 32.500000 12.500000
v 12.500000 32.500000 -12.500000
v -12.500000 32.500000 -12.500000
v 37.500000 32.500000 -62.500000
v 37.500000 32.500000 -37.500000
v 12.500000 32.500000 -62.500000
v 62.500000 32.500000 -37.500000
v 62.500000 32.500000 -12.500000
vt 0.034004 0.370934
vt 0.030139 0.360234
vt 0.035935 0.396158
vt 0.031313 0.379821
vt 0.034321 0.308995
vt 0.038508 0.204008
vt 0.029506 0.332331
vt 0.022068 0.352316
vt 0.029039 0.274688
vt 0.024215 0.404052
vt 0.025679 0.373275
vt 0.000031 0.443882
vt 0.046213 0.271640
vt 0.033714 0.491315
vt 0.060544 0.515675
vt 0.067223 0.499888
vt 0.042147 0.515800
vt 0.048264 0.526430
vt 0.057848 0.545661
vt 0.053878 0.549275
vt 0.053041 0.615092
vt 0.064564 0.631770
vt 0.052138 0.623147
vt 0.066090 0.670591
vt 0.060137 0.658574
vt 0.049181 0.642628
vt 0.073286 0.698218
vt 0.027525 0.407983
vt 0.035031 0.418413
vt 0.028475 0.404898
vt 0.032117 0.421668
vt 0.035554 0.412876
vt 0.037423 0.409090
vt 0.036284 0.458550
vt 0.041402 0.472717
vt 0.031999 0.471956
vt 0.039326 0.504085
vt 0.036648 0.486991
vt 0.035092 0.474850
vt 0.043732 0.528711
vt 0.032715 0.481810
vt 0.034896 0.485577
vt 0.044190 0.541904
vt 0.061761 0.544108
vt 0.046615 0.516955
vt 0.033671 0.394110
vt 0.031947 0.378267
vt 0.024629 0.365611
vt 0.025793 0.387657
vt 0.023626 0.375233
vt 0.011751 0.311111
vt 0.032591 0.338015
vt 0.020413 0.000031
vt 0.031930 0.202297
vt 0.061344 0.404323
vt 0.082220 0.430392
vt 0.072877 0.533939
vt 0.073020 0.521871
vt 0.068899 0.626126
vt 0.075039 0.668448
vt 0.061806 0.643357
vt 0.069539 0.673907
vt 0.066378 0.687025
vt 0.060501 0.807179
vt 0.067295 0.732565
vt 0.056922 0.778600
vt 0.052411 0.720393
vt 0.055620 0.787492
vt 0.082220 0.999969
vt 0.049569 0.600203
vt 0.057488 0.626052
vt 0.046396 0.561130
vt 0.043530 0.543364
vt 0.048147 0.571403
vt 0.054406 0.574154
vt 0.050893 0.555470
vt 0.047997 0.638359
vt 0.068863 0.652073
vt 0.027769 0.427525
vt 0.029913 0.422428
vt 0.029901 0.445289
vt 0.031386 0.430038
vt 0.031086 0.419212
vt 0.030584 0.409720
vt 0.034617 0.430803
vt 0.036964 0.420668
vt 0.028470 0.404891
vt 0.032976 0.406441
vt 0.032105 0.413830
vt 0.032358 0.402072
vt 0.032767 0.414378
vt 0.033563 0.393327
vt 0.042964 0.431440
vt 0.035850 0.409390
vt 0.049440 0.592490
vt 0.066230 0.580011
vt 0.066381 0.626083
vt 0.046642 0.633914
vt 0.033611 0.446383
vt 0.032511 0.443024
vt 0.050105 0.552094
vt 0.048231 0.566264
vt 0.047840 0.548435
vt 0.048468 0.557163
vt 0.058211 0.607083
vt 0.055348 0.606895
vt 0.051686 0.613783
vt 0.049518 0.591240
vt 0.050924 0.584423
vt 0.051859 0.569445
vt 0.047870 0.557603
vt 0.045915 0.548870
vt 0.051429 0.594585
vt 0.051259 0.562644
vt 0.044946 0.536048
vt 0.049334 0.556791
vt 0.023494 0.414858
vt 0.037375 0.420780
vt 0.035402 0.407772
vt 0.036591 0.421477
vt 0.033638 0.371970
vt 0.026479 0.392331
vt 0.035045 0.442537
vt 0.026461 0.398152
vt 0.043451 0.541949
vt 0.033110 0.430728
vt 0.033630 0.422638
vt 0.027892 0.418967
vt 0.031574 0.396101
vt 0.090739 0.021373
vt 0.090739 0.041256
vt 0.082282 0.000031
vt 0.082282 0.062598
vt 0.086510 0.023135
vt 0.086510 0.013068
vt 0.086510 0.039494
vt 0.086510 0.049561
vt 0.057576 0.593716
vt 0.053761 0.590070
vt 0.051250 0.581370
vt 0.051739 0.581782
vt 0.049302 0.565276
vt 0.051109 0.567551
vt 0.050012 0.566953
vt 0.053955 0.591484
vt 0.051308 0.581528
vn 0.0000 0.0000 -1.0000
vn 1.0000 0.0000 0.0000
vn 0.0000 0.0000 1.0000
vn -1.0000 0.0000 0.0000
vn 0.0000 1.0000 0.0000
vn 0.0000 -1.0000 0.0000
usemtl Steel_-_Satin
s 1
f 1/1/1 2/2/1 3/3/1
f 3/3/1 2/2/1 4/4/1
f 5/5/2 6/6/2 1/1/2
f 1/1/2 6/6/2 2/7/2
f 5/5/3 7/8/3 6/6/3
f 6/6/3 7/8/3 8/9/3
f 8/9/3 7/8/3 9/10/3
f 9/10/3 7/8/3 10/11/3
f 11/12/2 12/13/2 9/10/2
f 9/10/2 12/13/2 8/9/2
f 13/14/3 14/15/3 11/12/3
f 11/12/3 14/15/3 12/16/3
f 15/17/2 16/18/2 13/14/2
f 13/14/2 16/18/2 14/15/2
f 14/15/2 16/18/2 17/19/2
f 17/19/2 16/18/2 18/20/2
f 19/21/3 20/22/3 18/20/3
f 18/20/3 20/22/3 17/19/3
f 21/23/4 22/24/4 19/21/4
f 19/21/4 22/24/4 20/25/4
f 23/26/3 24/27/3 21/23/3
f 21/23/3 24/27/3 22/24/3
f 25/28/4 26/29/4 27/30/4
f 27/30/4 26/29/4 28/31/4
f 27/30/4 28/31/4 29/32/4
f 27/33/1 29/32/1 30/34/1
f 30/34/1 29/32/1 31/35/1
f 30/34/4 31/35/4 32/36/4
f 32/36/4 31/35/4 33/37/4
f 32/36/4 33/37/4 34/38/4
f 34/38/4 35/39/4 32/36/4
f 33/37/5 31/35/5 36/40/5
f 36/40/5 31/35/5 37/41/5
f 37/41/5 31/35/5 28/31/5
f 28/31/5 31/35/5 29/32/5
f 38/42/3 37/41/3 26/29/3
f 26/29/3 37/41/3 28/31/3
f 39/43/2 40/44/2 38/42/2
f 38/42/2 40/44/2 37/41/2
f 37/41/2 40/44/2 36/40/2
f 34/38/1 33/37/1 40/45/1
f 40/45/1 33/37/1 36/40/1
f 4/4/5 2/2/5 29/46/5
f 29/46/5 2/2/5 41/47/5
f 2/2/4 1/48/4 41/47/4
f 41/47/4 1/48/4 42/49/4
f 42/49/4 1/48/4 43/50/4
f 3/3/2 4/4/2 27/33/2
f 27/33/2 4/4/2 29/46/2
f 25/28/3 27/30/3 42/49/3
f 42/49/3 27/30/3 41/47/3
f 41/47/3 27/30/3 29/46/3
f 2/7/3 44/51/3 1/48/3
f 1/48/3 44/51/3 45/52/3
f 1/48/3 45/52/3 43/50/3
f 8/9/5 12/13/5 6/6/5
f 6/6/5 12/13/5 46/53/5
f 6/6/5 46/53/5 44/51/5
f 44/51/5 2/7/5 6/6/5
f 46/53/4 47/54/4 44/51/4
f 44/51/4 47/54/4 45/52/4
f 12/13/1 11/55/1 46/53/1
f 46/53/1 11/55/1 47/54/1
f 47/54/1 11/55/1 48/56/1
f 12/16/4 49/57/4 11/55/4
f 11/55/4 49/57/4 50/58/4
f 11/55/4 50/58/4 48/56/4
f 20/22/5 51/59/5 17/19/5
f 17/19/5 51/59/5 49/57/5
f 17/19/5 49/57/5 12/16/5
f 12/16/5 14/15/5 17/19/5
f 52/60/2 53/61/2 19/62/2
f 19/62/2 53/61/2 51/59/2
f 19/62/2 51/59/2 20/22/2
f 51/59/1 53/61/1 49/57/1
f 49/57/1 53/61/1 50/58/1
f 22/24/5 24/27/5 20/25/5
f 20/25/5 24/27/5 54/63/5
f 24/27/2 23/64/2 54/63/2
f 54/63/2 23/64/2 55/65/2
f 55/65/2 23/64/2 56/66/2
f 52/60/1 19/62/1 55/65/1
f 55/65/1 19/62/1 54/63/1
f 54/63/1 19/62/1 20/25/1
f 24/67/1 57/68/1 23/64/1
f 23/64/1 57/68/1 58/69/1
f 23/64/1 58/69/1 56/66/1
f 59/70/4 60/71/4 23/26/4
f 23/26/4 60/71/4 24/67/4
f 61/72/1 62/73/1 63/74/1
f 63/74/1 62/73/1 64/75/1
f 63/74/1 64/75/1 60/71/1
f 60/71/1 59/70/1 63/74/1
f 64/75/5 36/76/5 60/71/5
f 60/71/5 36/76/5 65/77/5
f 60/71/5 65/77/5 57/68/5
f 57/68/5 24/67/5 60/71/5
f 65/77/2 66/78/2 57/68/2
f 57/68/2 66/78/2 58/69/2
f 39/43/3 66/78/3 40/44/3
f 40/44/3 66/78/3 65/77/3
f 40/44/3 65/77/3 36/76/3
f 40/45/4 36/76/4 62/73/4
f 62/73/4 36/76/4 64/75/4
f 67/79/1 68/80/1 69/81/1
f 69/81/1 68/80/1 70/82/1
f 70/82/6 68/80/6 71/83/6
f 71/83/6 68/80/6 72/84/6
f 73/85/3 67/86/3 74/87/3
f 74/87/3 67/86/3 75/88/3
f 75/88/3 67/86/3 68/89/3
f 75/88/3 68/89/3 76/90/3
f 76/90/3 68/89/3 77/91/3
f 76/90/3 78/92/3 75/88/3
f 73/85/6 39/43/6 79/93/6
f 79/93/6 39/43/6 38/42/6
f 79/93/6 38/42/6 25/28/6
f 25/28/6 38/42/6 26/29/6
f 39/43/6 73/85/6 48/56/6
f 48/56/6 73/85/6 74/87/6
f 48/56/6 74/87/6 47/54/6
f 47/54/6 74/87/6 43/50/6
f 47/54/6 43/50/6 45/52/6
f 74/87/6 80/94/6 43/50/6
f 43/50/6 80/94/6 25/28/6
f 43/50/6 25/28/6 42/49/6
f 80/94/6 79/93/6 25/28/6
f 50/58/6 81/95/6 48/56/6
f 48/56/6 81/95/6 82/96/6
f 48/56/6 82/96/6 39/43/6
f 39/43/6 82/96/6 83/97/6
f 39/43/6 83/97/6 66/78/6
f 66/78/6 83/97/6 56/66/6
f 66/78/6 56/66/6 58/69/6
f 53/61/6 52/60/6 50/58/6
f 50/58/6 52/60/6 81/95/6
f 55/65/6 56/66/6 52/60/6
f 52/60/6 56/66/6 84/98/6
f 52/60/6 84/98/6 81/95/6
f 83/97/6 84/98/6 56/66/6
f 85/99/1 86/100/1 35/39/1
f 35/39/1 86/100/1 32/36/1
f 87/101/4 88/102/4 89/103/4
f 89/103/4 88/102/4 90/104/4
f 91/105/5 92/106/5 93/107/5
f 93/107/5 92/106/5 21/23/5
f 93/107/5 21/23/5 94/108/5
f 94/108/5 21/23/5 19/21/5
f 94/108/5 19/21/5 18/20/5
f 95/109/5 59/70/5 92/106/5
f 92/106/5 59/70/5 23/26/5
f 92/106/5 23/26/5 21/23/5
f 96/110/5 63/74/5 95/109/5
f 95/109/5 63/74/5 59/70/5
f 94/108/5 18/20/5 97/111/5
f 97/111/5 18/20/5 16/18/5
f 97/111/5 16/18/5 98/112/5
f 94/108/5 99/113/5 93/107/5
f 96/110/4 100/114/4 63/74/4
f 63/74/4 100/114/4 61/72/4
f 83/97/4 91/105/4 84/98/4
f 84/98/4 91/105/4 93/107/4
f 89/103/3 90/104/3 101/115/3
f 101/115/3 90/104/3 102/116/3
f 99/113/3 81/95/3 93/107/3
f 93/107/3 81/95/3 84/98/3
f 103/117/2 72/84/2 67/79/2
f 67/79/2 72/84/2 68/80/2
f 104/118/5 105/119/5 106/120/5
f 106/120/5 105/119/5 3/3/5
f 106/120/5 3/3/5 27/33/5
f 75/88/5 78/92/5 105/119/5
f 105/119/5 78/92/5 3/3/5
f 3/3/5 78/92/5 1/1/5
f 1/1/5 78/92/5 107/121/5
f 1/1/5 107/121/5 5/5/5
f 5/5/5 107/121/5 7/8/5
f 7/8/5 107/121/5 108/122/5
f 27/33/5 30/34/5 106/120/5
f 106/120/5 30/34/5 109/123/5
f 109/123/5 30/34/5 32/36/5
f 109/123/5 32/36/5 86/100/5
f 108/122/2 110/124/2 7/8/2
f 7/8/2 110/124/2 10/11/2
f 74/87/2 75/88/2 80/94/2
f 80/94/2 75/88/2 105/119/2
f 111/125/3 98/112/3 15/17/3
f 15/17/3 98/112/3 16/18/3
f 104/118/1 79/93/1 105/119/1
f 105/119/1 79/93/1 80/94/1
f 67/79/5 69/81/5 103/117/5
f 103/117/5 69/81/5 13/14/5
f 103/117/5 13/14/5 9/10/5
f 9/10/5 13/14/5 11/12/5
f 85/99/5 34/38/5 69/81/5
f 69/81/5 34/38/5 101/115/5
f 69/81/5 101/115/5 13/14/5
f 13/14/5 101/115/5 111/125/5
f 13/14/5 111/125/5 15/17/5
f 85/99/5 35/39/5 34/38/5
f 40/45/5 62/73/5 34/38/5
f 34/38/5 62/73/5 87/101/5
f 34/38/5 87/101/5 101/115/5
f 101/115/5 87/101/5 89/103/5
f 61/72/5 100/114/5 62/73/5
f 62/73/5 100/114/5 87/101/5
f 10/11/5 110/124/5 9/10/5
f 9/10/5 110/124/5 103/117/5
f 112/126/3 113/127/3 109/123/3
f 109/123/3 113/127/3 106/120/3
f 106/120/4 113/127/4 104/118/4
f 104/118/4 113/127/4 68/89/4
f 104/118/4 68/89/4 67/86/4
f 113/127/4 77/91/4 68/89/4
f 73/85/4 79/93/4 67/86/4
f 67/86/4 79/93/4 104/118/4
f 71/83/2 114/128/2 70/82/2
f 70/82/2 114/128/2 112/126/2
f 70/82/2 112/126/2 86/100/2
f 86/100/2 112/126/2 109/123/2
f 85/99/2 69/81/2 86/100/2
f 86/100/2 69/81/2 70/82/2
f 76/90/4 115/129/4 78/92/4
f 78/92/4 115/129/4 107/121/4
f 107/121/1 115/129/1 108/122/1
f 108/122/1 115/129/1 72/84/1
f 108/122/1 72/84/1 103/117/1
f 115/129/1 114/128/1 72/84/1
f 72/84/1 114/128/1 71/83/1
f 103/117/1 110/124/1 108/122/1
f 112/126/5 114/128/5 77/91/5
f 77/91/5 114/128/5 115/129/5
f 77/91/5 115/129/5 76/90/5
f 77/91/5 113/127/5 112/126/5
f 116/130/6 71/131/6 117/132/6
f 117/132/6 71/131/6 118/133/6
f 119/134/2 116/130/2 120/135/2
f 120/135/2 116/130/2 117/132/2
f 114/136/5 119/134/5 121/137/5
f 121/137/5 119/134/5 120/135/5
f 71/131/4 114/136/4 118/133/4
f 118/133/4 114/136/4 121/137/4
f 118/133/1 121/137/1 117/132/1
f 117/132/1 121/137/1 120/135/1
f 114/136/3 71/131/3 119/134/3
f 119/134/3 71/131/3 116/130/3
f 82/96/2 81/95/2 89/138/2
f 89/138/2 81/95/2 99/113/2
f 89/138/2 99/113/2 90/139/2
f 90/139/2 99/113/2 122/140/2
f 90/139/2 122/140/2 123/141/2
f 99/113/2 94/108/2 122/140/2
f 117/142/4 120/143/4 102/116/4
f 102/116/4 120/143/4 124/144/4
f 102/116/4 124/144/4 98/112/4
f 98/112/4 124/144/4 97/111/4
f 111/125/4 101/115/4 98/112/4
f 98/112/4 101/115/4 102/116/4
f 124/144/1 122/140/1 97/111/1
f 97/111/1 122/140/1 94/108/1
f 123/141/1 125/145/1 90/139/1
f 90/139/1 125/145/1 91/105/1
f 90/139/1 91/105/1 89/138/1
f 89/138/1 91/105/1 83/97/1
f 89/138/1 83/97/1 82/96/1
f 125/145/1 92/106/1 91/105/1
f 125/145/2 126/146/2 92/106/2
f 92/106/2 126/146/2 95/109/2
f 117/142/3 88/102/3 120/143/3
f 120/143/3 88/102/3 126/146/3
f 126/146/3 88/102/3 96/110/3
f 126/146/3 96/110/3 95/109/3
f 88/102/3 87/101/3 96/110/3
f 96/110/3 87/101/3 100/114/3
f 124/144/5 120/143/5 123/141/5
f 123/141/5 120/143/5 126/146/5
f 123/141/5 126/146/5 125/145/5
f 123/141/5 122/140/5 124/144/5
f 88/102/6 117/142/6 90/104/6
f 90/104/6 117/142/6 102/116/6
