# WaveFront *.obj file (generated by Autodesk ATF)

mtllib 07c57a9d-8751-4ea0-aaa2-daa7a0910043.mtl

g Body1

v -10.000000 5.000000 15.000000
v -10.000000 -5.000000 15.000000
v -5.000000 -10.000000 15.000000
v 5.000000 -10.000000 15.000000
v 10.000000 -5.000000 15.000000
v 10.000000 5.000000 15.000000
v 5.000000 10.000000 15.000000
v -5.000000 10.000000 15.000000
v -10.000000 5.000000 5.000000
v -10.000000 -5.000000 5.000000
v -5.000000 10.000000 5.000000
v 5.000000 10.000000 5.000000
v 10.000000 5.000000 5.000000
v 10.000000 -5.000000 5.000000
v 5.000000 -10.000000 5.000000
v -5.000000 -10.000000 5.000000
v -10.000000 -20.000000 10.000000
v 10.000000 -20.000000 10.000000
v 10.000000 -20.000000 5.000000
v -10.000000 -20.000000 5.000000
v 20.000000 -10.000000 10.000000
v 20.000000 -10.000000 5.000000
v 20.000000 10.000000 10.000000
v 20.000000 10.000000 5.000000
v 10.000000 20.000000 10.000000
v 10.000000 20.000000 5.000000
v -10.000000 20.000000 10.000000
v -10.000000 20.000000 5.000000
v -20.000000 10.000000 10.000000
v -20.000000 10.000000 5.000000
v -20.000000 -10.000000 10.000000
v -20.000000 -10.000000 5.000000
v 25.000000 25.000000 10.000000
v -25.000000 25.000000 10.000000
v -25.000000 -25.000000 10.000000
v 25.000000 -25.000000 10.000000
v -25.000000 25.000000 0.000000
v 25.000000 25.000000 0.000000
v 25.000000 -25.000000 0.000000
v -25.000000 -25.000000 0.000000
vt -1.000000 -0.500000 0.000000
vt 0.500000 -1.000000 0.000000
vt -1.000000 0.500000 0.000000
vt 1.000000 -0.500000 0.000000
vt -0.500000 1.000000 0.000000
vt 1.000000 0.500000 0.000000
vt 0.500000 1.000000 0.000000
vt -0.500000 -1.000000 0.000000
vt -0.000000 0.500000 0.000000
vt -1.000000 0.500000 0.000000
vt -0.000000 -0.500000 0.000000
vt -1.000000 -0.500000 0.000000
vt 0.000000 0.500000 0.000000
vt -0.707107 0.500000 0.000000
vt -0.000000 -0.500000 0.000000
vt -0.707107 -0.500000 0.000000
vt -0.000000 0.500000 0.000000
vt -1.000000 0.500000 0.000000
vt -0.000000 -0.500000 0.000000
vt -1.000000 -0.500000 0.000000
vt -0.000000 0.500000 0.000000
vt -0.707107 0.500000 0.000000
vt -0.000000 -0.500000 0.000000
vt -0.707107 -0.500000 0.000000
vt -0.000000 0.500000 0.000000
vt -1.000000 0.500000 0.000000
vt -0.000000 -0.500000 0.000000
vt -1.000000 -0.500000 0.000000
vt -0.000000 0.500000 0.000000
vt -0.707107 0.500000 0.000000
vt -0.000000 -0.500000 0.000000
vt -0.707107 -0.500000 0.000000
vt -0.000000 0.500000 0.000000
vt -1.000000 0.500000 0.000000
vt -0.000000 -0.500000 0.000000
vt -1.000000 -0.500000 0.000000
vt -0.000000 0.500000 0.000000
vt -0.707107 0.500000 0.000000
vt -0.000000 -0.500000 0.000000
vt -0.707107 -0.500000 0.000000
vt -2.000000 0.000000 0.000000
vt -0.000000 0.000000 0.000000
vt -2.000000 0.500000 0.000000
vt -0.000000 0.500000 0.000000
vt -1.414214 0.000000 0.000000
vt -0.000000 0.000000 0.000000
vt -1.414214 0.500000 0.000000
vt 0.000000 0.500000 0.000000
vt -2.000000 0.000000 0.000000
vt -0.000000 0.000000 0.000000
vt -2.000000 0.500000 0.000000
vt -0.000000 0.500000 0.000000
vt -1.414214 0.000000 0.000000
vt -0.000000 0.000000 0.000000
vt -1.414214 0.500000 0.000000
vt -0.000000 0.500000 0.000000
vt -2.000000 0.000000 0.000000
vt -0.000000 0.000000 0.000000
vt -2.000000 0.500000 0.000000
vt -0.000000 0.500000 0.000000
vt -1.414214 0.000000 0.000000
vt -0.000000 0.000000 0.000000
vt -1.414214 0.500000 0.000000
vt -0.000000 0.500000 0.000000
vt -2.000000 0.000000 0.000000
vt -0.000000 0.000000 0.000000
vt -2.000000 0.500000 0.000000
vt -0.000000 0.500000 0.000000
vt -1.414214 0.000000 0.000000
vt -0.000000 0.000000 0.000000
vt -1.414214 0.500000 0.000000
vt -0.000000 0.500000 0.000000
vt -1.000000 -0.500000 0.000000
vt -2.000000 -1.000000 0.000000
vt -0.500000 -1.000000 0.000000
vt -1.000000 -2.000000 0.000000
vt 1.000000 -2.000000 0.000000
vt -1.000000 0.500000 0.000000
vt -2.000000 1.000000 0.000000
vt -0.500000 1.000000 0.000000
vt -1.000000 2.000000 0.000000
vt 0.500000 1.000000 0.000000
vt 1.000000 2.000000 0.000000
vt 2.000000 1.000000 0.000000
vt 1.000000 0.500000 0.000000
vt 2.000000 -1.000000 0.000000
vt 1.000000 -0.500000 0.000000
vt 0.500000 -1.000000 0.000000
vt -2.500000 2.500000 0.000000
vt 1.000000 2.000000 0.000000
vt 2.500000 2.500000 0.000000
vt 2.000000 1.000000 0.000000
vt 2.500000 -2.500000 0.000000
vt 2.000000 -1.000000 0.000000
vt 1.000000 -2.000000 0.000000
vt -2.500000 -2.500000 0.000000
vt -2.000000 1.000000 0.000000
vt -1.000000 2.000000 0.000000
vt -1.000000 -2.000000 0.000000
vt -2.000000 -1.000000 0.000000
vt -2.500000 -2.500000 0.000000
vt 2.500000 -2.500000 0.000000
vt -2.500000 2.500000 0.000000
vt 2.500000 2.500000 0.000000
vt -0.750000 -2.500000 0.000000
vt 0.250000 -2.500000 0.000000
vt -0.750000 2.500000 0.000000
vt 0.250000 2.500000 0.000000
vt 0.750000 2.500000 0.000000
vt -0.250000 2.500000 0.000000
vt 0.750000 -2.500000 0.000000
vt -0.250000 -2.500000 0.000000
vt 0.750000 2.500000 0.000000
vt -0.250000 2.500000 0.000000
vt 0.750000 -2.500000 0.000000
vt -0.250000 -2.500000 0.000000
vt -0.750000 -2.500000 0.000000
vt 0.250000 -2.500000 0.000000
vt -0.750000 2.500000 0.000000
vt 0.250000 2.500000 0.000000
vn 0.000000 0.000000 0.100000
vn 0.000000 0.000000 0.100000
vn 0.000000 0.000000 0.100000
vn 0.000000 0.000000 0.100000
vn 0.000000 0.000000 0.100000
vn 0.000000 0.000000 0.100000
vn 0.000000 0.000000 0.100000
vn 0.000000 0.000000 0.100000
vn -0.100000 0.000000 0.000000
vn -0.100000 0.000000 0.000000
vn -0.100000 0.000000 0.000000
vn -0.100000 0.000000 0.000000
vn -0.070711 0.070711 -0.000000
vn -0.070711 0.070711 -0.000000
vn -0.070711 0.070711 -0.000000
vn -0.070711 0.070711 -0.000000
vn 0.000000 0.100000 0.000000
vn 0.000000 0.100000 0.000000
vn 0.000000 0.100000 0.000000
vn 0.000000 0.100000 0.000000
vn 0.070711 0.070711 0.000000
vn 0.070711 0.070711 0.000000
vn 0.070711 0.070711 0.000000
vn 0.070711 0.070711 0.000000
vn 0.100000 0.000000 0.000000
vn 0.100000 0.000000 0.000000
vn 0.100000 0.000000 0.000000
vn 0.100000 0.000000 0.000000
vn 0.070711 -0.070711 0.000000
vn 0.070711 -0.070711 0.000000
vn 0.070711 -0.070711 0.000000
vn 0.070711 -0.070711 0.000000
vn 0.000000 -0.100000 0.000000
vn 0.000000 -0.100000 0.000000
vn 0.000000 -0.100000 0.000000
vn 0.000000 -0.100000 0.000000
vn -0.070711 -0.070711 0.000000
vn -0.070711 -0.070711 0.000000
vn -0.070711 -0.070711 0.000000
vn -0.070711 -0.070711 0.000000
vn 0.000000 0.100000 0.000000
vn 0.000000 0.100000 0.000000
vn 0.000000 0.100000 0.000000
vn 0.000000 0.100000 0.000000
vn -0.070711 0.070711 -0.000000
vn -0.070711 0.070711 -0.000000
vn -0.070711 0.070711 -0.000000
vn -0.070711 0.070711 -0.000000
vn -0.100000 0.000000 0.000000
vn -0.100000 0.000000 0.000000
vn -0.100000 0.000000 0.000000
vn -0.100000 0.000000 0.000000
vn -0.070711 -0.070711 0.000000
vn -0.070711 -0.070711 0.000000
vn -0.070711 -0.070711 0.000000
vn -0.070711 -0.070711 0.000000
vn 0.000000 -0.100000 0.000000
vn 0.000000 -0.100000 0.000000
vn 0.000000 -0.100000 0.000000
vn 0.000000 -0.100000 0.000000
vn 0.070711 -0.070711 0.000000
vn 0.070711 -0.070711 0.000000
vn 0.070711 -0.070711 0.000000
vn 0.070711 -0.070711 0.000000
vn 0.100000 0.000000 0.000000
vn 0.100000 0.000000 0.000000
vn 0.100000 0.000000 0.000000
vn 0.100000 0.000000 0.000000
vn 0.070711 0.070711 0.000000
vn 0.070711 0.070711 0.000000
vn 0.070711 0.070711 0.000000
vn 0.070711 0.070711 0.000000
vn 0.000000 0.000000 0.100000
vn 0.000000 0.000000 0.100000
vn 0.000000 0.000000 0.100000
vn 0.000000 0.000000 0.100000
vn 0.000000 0.000000 0.100000
vn 0.000000 0.000000 0.100000
vn 0.000000 0.000000 0.100000
vn 0.000000 0.000000 0.100000
vn 0.000000 0.000000 0.100000
vn 0.000000 0.000000 0.100000
vn 0.000000 0.000000 0.100000
vn 0.000000 0.000000 0.100000
vn 0.000000 0.000000 0.100000
vn 0.000000 0.000000 0.100000
vn 0.000000 0.000000 0.100000
vn 0.000000 0.000000 0.100000
vn 0.000000 0.000000 0.100000
vn 0.000000 0.000000 0.100000
vn 0.000000 0.000000 0.100000
vn 0.000000 0.000000 0.100000
vn 0.000000 0.000000 0.100000
vn 0.000000 0.000000 0.100000
vn 0.000000 0.000000 0.100000
vn 0.000000 0.000000 0.100000
vn 0.000000 0.000000 0.100000
vn 0.000000 0.000000 0.100000
vn 0.000000 0.000000 0.100000
vn 0.000000 0.000000 0.100000
vn 0.000000 0.000000 -0.100000
vn 0.000000 0.000000 -0.100000
vn 0.000000 0.000000 -0.100000
vn 0.000000 0.000000 -0.100000
vn 0.100000 0.000000 0.000000
vn 0.100000 0.000000 0.000000
vn 0.100000 0.000000 0.000000
vn 0.100000 0.000000 0.000000
vn 0.000000 -0.100000 0.000000
vn 0.000000 -0.100000 0.000000
vn 0.000000 -0.100000 0.000000
vn 0.000000 -0.100000 0.000000
vn -0.100000 0.000000 0.000000
vn -0.100000 0.000000 0.000000
vn -0.100000 0.000000 0.000000
vn -0.100000 0.000000 0.000000
vn -0.000000 0.100000 -0.000000
vn -0.000000 0.100000 -0.000000
vn -0.000000 0.100000 -0.000000
vn -0.000000 0.100000 -0.000000
usemtl Steel_-_Satin
f 2/1/1 4/2/2 1/3/3
f 1/3/3 4/2/2 5/4/4
f 1/3/3 5/4/4 8/5/5
f 8/5/5 5/4/4 6/6/6
f 8/5/5 6/6/6 7/7/7
f 2/1/1 3/8/8 4/2/2
f 9/9/9 10/10/10 1/11/11
f 1/11/11 10/10/10 2/12/12
f 11/13/13 9/14/14 8/15/15
f 8/15/15 9/14/14 1/16/16
f 12/17/17 11/18/18 7/19/19
f 7/19/19 11/18/18 8/20/20
f 13/21/21 12/22/22 6/23/23
f 6/23/23 12/22/22 7/24/24
f 14/25/25 13/26/26 5/27/27
f 5/27/27 13/26/26 6/28/28
f 15/29/29 14/30/30 4/31/31
f 4/31/31 14/30/30 5/32/32
f 16/33/33 15/34/34 3/35/35
f 3/35/35 15/34/34 4/36/36
f 10/37/37 16/38/38 2/39/39
f 2/39/39 16/38/38 3/40/40
f 17/41/41 18/42/42 20/43/43
f 20/43/43 18/42/42 19/44/44
f 18/45/45 21/46/46 19/47/47
f 19/47/47 21/46/46 22/48/48
f 21/49/49 23/50/50 22/51/51
f 22/51/51 23/50/50 24/52/52
f 23/53/53 25/54/54 24/55/55
f 24/55/55 25/54/54 26/56/56
f 25/57/57 27/58/58 26/59/59
f 26/59/59 27/58/58 28/60/60
f 27/61/61 29/62/62 28/63/63
f 28/63/63 29/62/62 30/64/64
f 29/65/65 31/66/66 30/67/67
f 30/67/67 31/66/66 32/68/68
f 31/69/69 17/70/70 32/71/71
f 32/71/71 17/70/70 20/72/72
f 10/73/73 32/74/74 16/75/75
f 16/75/75 32/74/74 20/76/76
f 16/75/75 20/76/76 19/77/77
f 10/73/73 9/78/78 32/74/74
f 32/74/74 9/78/78 30/79/79
f 30/79/79 9/78/78 11/80/80
f 30/79/79 11/80/80 28/81/81
f 28/81/81 11/80/80 12/82/82
f 28/81/81 12/82/82 26/83/83
f 26/83/83 12/82/82 24/84/84
f 24/84/84 12/82/82 13/85/85
f 24/84/84 13/85/85 22/86/86
f 22/86/86 13/85/85 14/87/87
f 22/86/86 14/87/87 15/88/88
f 22/86/86 15/88/88 19/77/77
f 19/77/77 15/88/88 16/75/75
f 34/89/89 25/90/90 33/91/91
f 33/91/91 25/90/90 23/92/92
f 33/91/91 23/92/92 36/93/93
f 36/93/93 23/92/92 21/94/94
f 36/93/93 21/94/94 18/95/95
f 35/96/96 29/97/97 34/89/89
f 34/89/89 29/97/97 27/98/98
f 34/89/89 27/98/98 25/90/90
f 36/93/93 17/99/99 35/96/96
f 35/96/96 17/99/99 31/100/100
f 35/96/96 31/100/100 29/97/97
f 18/95/95 17/99/99 36/93/93
f 38/101/101 39/102/102 37/103/103
f 37/103/103 39/102/102 40/104/104
f 36/105/105 39/106/106 33/107/107
f 33/107/107 39/106/106 38/108/108
f 35/109/109 40/110/110 36/111/111
f 36/111/111 40/110/110 39/112/112
f 34/113/113 37/114/114 35/115/115
f 35/115/115 37/114/114 40/116/116
f 33/117/117 38/118/118 34/119/119
f 34/119/119 38/118/118 37/120/120

# 40 vertices
# 120 texture params
# 120 normals
# 76 facets

# 1 groups
